<?xml version="1.0" standalone="no"?>
<!DOCTYPE svg PUBLIC "-//W3C//DTD SVG 20010904//EN"
 "http://www.w3.org/TR/2001/REC-SVG-20010904/DTD/svg10.dtd">
<svg version="1.0" xmlns="http://www.w3.org/2000/svg"
 width="198.000000pt" height="148.000000pt" viewBox="0 0 198.000000 148.000000"
 preserveAspectRatio="xMidYMid meet">

<g transform="translate(0.000000,148.000000) scale(0.100000,-0.100000)"
fill="#000000" stroke="none">
<path d="M580 1150 c-43 -43 -31 -63 145 -239 l164 -166 -164 -166 c-133 -133
-165 -171 -165 -193 0 -33 40 -76 71 -76 16 0 74 51 191 167 l168 167 168
-167 c117 -116 175 -167 191 -167 31 0 71 43 71 76 0 22 -32 60 -165 193
l-164 166 164 166 c131 131 165 171 165 192 0 37 -33 67 -72 67 -28 0 -53 -21
-195 -162 l-163 -162 -163 162 c-142 141 -167 162 -195 162 -19 0 -40 -8 -52
-20z"/>
</g>
</svg>
