<?xml version="1.0" standalone="no"?>
<!DOCTYPE svg PUBLIC "-//W3C//DTD SVG 20010904//EN"
 "http://www.w3.org/TR/2001/REC-SVG-20010904/DTD/svg10.dtd">
<svg version="1.0" xmlns="http://www.w3.org/2000/svg"
 width="225.000000pt" height="225.000000pt" viewBox="0 0 225.000000 225.000000"
 preserveAspectRatio="xMidYMid meet">

<g transform="translate(0.000000,225.000000) scale(0.100000,-0.100000)"
fill="#000000" stroke="none">
<path d="M297 2089 c-62 -15 -112 -45 -156 -95 -71 -81 -71 -82 -71 -655 0
-571 0 -572 73 -655 45 -51 94 -79 166 -95 l51 -11 2 -207 3 -208 299 208 298
208 497 3 496 3 57 28 c64 32 111 80 142 146 21 45 21 58 21 581 0 523 0 536
-21 581 -31 66 -78 114 -142 146 l-57 28 -810 2 c-453 1 -827 -3 -848 -8z
m1675 -137 c20 -13 47 -40 60 -60 l23 -37 0 -516 0 -515 -27 -41 c-49 -75 -34
-73 -595 -73 l-498 0 -222 -155 c-122 -85 -224 -155 -227 -155 -3 0 -6 70 -6
155 l0 155 -89 0 c-105 0 -143 19 -178 90 -23 44 -23 46 -23 540 0 494 0 496
23 540 25 50 59 78 108 90 19 5 390 8 824 7 l790 -2 37 -23z"/>
<path d="M630 1600 l0 -60 490 0 490 0 0 60 0 60 -490 0 -490 0 0 -60z"/>
<path d="M637 1393 c-4 -3 -7 -30 -7 -60 l0 -53 490 0 490 0 0 60 0 60 -483 0
c-266 0 -487 -3 -490 -7z"/>
<path d="M630 1070 l0 -60 490 0 490 0 0 60 0 60 -490 0 -490 0 0 -60z"/>
</g>
</svg>
