<?xml version="1.0" standalone="no"?>
<!DOCTYPE svg PUBLIC "-//W3C//DTD SVG 20010904//EN"
 "http://www.w3.org/TR/2001/REC-SVG-20010904/DTD/svg10.dtd">
<svg version="1.0" xmlns="http://www.w3.org/2000/svg"
 width="344.000000pt" height="78.000000pt" viewBox="0 0 344.000000 78.000000"
 preserveAspectRatio="xMidYMid meet">

<g transform="translate(0.000000,78.000000) scale(0.100000,-0.100000)"
fill="#000000" stroke="none">
<path d="M380 590 c0 -5 -9 -10 -20 -10 -11 0 -20 -4 -20 -10 0 -5 -7 -10 -15
-10 -20 0 -65 -45 -65 -65 0 -8 -4 -15 -10 -15 -5 0 -10 -9 -10 -20 0 -11 -4
-20 -10 -20 -6 0 -10 -27 -10 -60 0 -33 4 -60 10 -60 6 0 10 -9 10 -20 0 -11
5 -20 10 -20 6 0 10 -7 10 -15 0 -20 45 -65 65 -65 8 0 15 -4 15 -10 0 -5 9
-10 20 -10 11 0 20 -4 20 -10 0 -6 27 -10 60 -10 33 0 60 4 60 10 0 6 11 10
25 10 35 0 115 80 115 115 0 14 5 25 10 25 6 0 10 27 10 60 0 33 -4 60 -10 60
-5 0 -10 11 -10 25 0 17 -15 41 -45 70 -29 30 -53 45 -70 45 -14 0 -25 5 -25
10 0 6 -27 10 -60 10 -33 0 -60 -4 -60 -10z"/>
<path d="M1680 590 c0 -5 -7 -10 -15 -10 -20 0 -105 -85 -105 -105 0 -8 -4
-15 -10 -15 -6 0 -10 -33 -10 -80 0 -47 4 -80 10 -80 6 0 10 -9 10 -20 0 -11
5 -20 10 -20 6 0 10 -9 10 -20 0 -13 7 -20 18 -20 10 0 24 -9 32 -20 8 -11 22
-20 32 -20 10 0 18 -4 18 -10 0 -6 30 -10 70 -10 40 0 70 4 70 10 0 6 7 10 15
10 20 0 105 85 105 105 0 8 5 15 10 15 6 0 10 33 10 80 0 47 -4 80 -10 80 -5
0 -10 7 -10 15 0 20 -85 105 -105 105 -8 0 -15 5 -15 10 0 6 -30 10 -70 10
-40 0 -70 -4 -70 -10z"/>
<path d="M2980 590 c0 -5 -7 -10 -15 -10 -20 0 -105 -85 -105 -105 0 -8 -4
-15 -10 -15 -6 0 -10 -33 -10 -80 0 -47 4 -80 10 -80 6 0 10 -7 10 -15 0 -20
85 -105 105 -105 8 0 15 -4 15 -10 0 -6 30 -10 70 -10 40 0 70 4 70 10 0 6 7
10 15 10 26 0 125 107 125 135 0 14 5 25 10 25 6 0 10 18 10 40 0 22 -4 40
-10 40 -5 0 -10 11 -10 25 0 28 -99 135 -125 135 -8 0 -15 5 -15 10 0 6 -30
10 -70 10 -40 0 -70 -4 -70 -10z"/>
</g>
</svg>
