<?xml version="1.0" encoding="UTF-8"?>
<!-- Generator: visioncortex VTracer 0.6.3 -->
<svg version="1.1" xmlns="http://www.w3.org/2000/svg" width="1280" height="1280">
<path d="M0 0 C422.4 0 844.8 0 1280 0 C1280 422.4 1280 844.8 1280 1280 C857.6 1280 435.2 1280 0 1280 C0 857.6 0 435.2 0 0 Z " fill="#000002" transform="translate(0,0)"/>
<path d="M0 0 C422.4 0 844.8 0 1280 0 C1280 422.4 1280 844.8 1280 1280 C857.6 1280 435.2 1280 0 1280 C0 857.6 0 435.2 0 0 Z M411.51 53.06 C410.54 53.07 409.57 53.07 408.56 53.08 C399.62 53.14 390.68 53.21 381.74 53.29 C375.73 53.34 369.72 53.38 363.71 53.42 C357.9 53.46 352.1 53.5 346.29 53.56 C344.07 53.58 341.86 53.59 339.64 53.6 C336.55 53.62 333.45 53.65 330.36 53.68 C329.44 53.68 328.51 53.69 327.56 53.69 C326.72 53.7 325.88 53.71 325.02 53.72 C324.29 53.73 323.55 53.73 322.8 53.74 C320.75 53.85 320.75 53.85 319 56 C318.81 59.01 318.74 61.93 318.76 64.94 C318.75 66.33 318.75 66.33 318.75 67.75 C318.75 70.83 318.76 73.91 318.77 76.98 C318.77 79.12 318.77 81.25 318.77 83.39 C318.77 87.87 318.78 92.35 318.79 96.84 C318.81 102.58 318.82 108.32 318.81 114.06 C318.81 118.47 318.82 122.89 318.83 127.3 C318.83 129.42 318.83 131.53 318.83 133.65 C318.84 136.61 318.84 139.57 318.85 142.54 C318.85 143.41 318.85 144.28 318.85 145.18 C318.88 149.58 319.25 153.65 320 158 C318.23 159.77 315.68 159.12 313.28 159.13 C312.06 159.13 310.83 159.13 309.57 159.14 C308.57 159.14 308.57 159.14 307.56 159.14 C304.75 159.14 301.94 159.16 299.13 159.18 C293.9 159.22 288.68 159.25 283.45 159.25 C261.69 159.25 240.65 159.51 221 170 C219.75 170.62 218.5 171.24 217.24 171.84 C204.79 177.68 204.79 177.68 195 187 C193.89 187.96 192.77 188.89 191.62 189.81 C188.35 192.54 185.92 195.49 183.46 198.95 C182.53 200.26 181.55 201.55 180.54 202.8 C174.32 210.5 170.07 219.63 167 229 C166.53 229.99 166.06 230.98 165.57 232 C157.94 249.78 159.41 271.63 159.48 290.6 C159.49 294.51 159.48 298.41 159.46 302.32 C159.45 309.14 159.45 315.95 159.46 322.77 C159.47 332.91 159.46 343.05 159.44 353.19 C159.42 371.31 159.42 389.42 159.43 407.54 C159.43 423.4 159.43 439.25 159.43 455.1 C159.42 457.24 159.42 459.37 159.42 461.5 C159.42 464.71 159.42 467.92 159.42 471.14 C159.41 500.97 159.4 530.81 159.41 560.65 C159.41 561.77 159.41 562.9 159.41 564.05 C159.42 573.17 159.42 582.29 159.43 591.41 C159.44 626.99 159.43 662.57 159.4 698.15 C159.37 738.17 159.36 778.19 159.37 818.22 C159.37 822.49 159.37 826.76 159.37 831.03 C159.37 832.08 159.37 833.13 159.37 834.22 C159.37 850.06 159.36 865.9 159.35 881.74 C159.33 899.76 159.33 917.78 159.35 935.8 C159.37 945.87 159.37 955.94 159.34 966.01 C159.33 972.75 159.34 979.5 159.36 986.24 C159.37 990.07 159.37 993.9 159.35 997.73 C159.26 1018.41 159.79 1039.06 169 1058 C169.5 1059.04 169.99 1060.08 170.5 1061.15 C172.21 1064.39 174.07 1067.51 176 1070.62 C176.68 1071.73 177.36 1072.84 178.06 1073.98 C180.37 1077.61 180.37 1077.61 183 1081 C183.66 1081 184.32 1081 185 1081 C185.24 1081.58 185.48 1082.15 185.73 1082.75 C187.25 1085.44 189.02 1087 191.38 1089 C195.82 1092.81 195.82 1092.81 197.78 1094.92 C221.37 1117.02 253.81 1119.63 284.29 1119.5 C288.24 1119.49 292.19 1119.5 296.14 1119.51 C303.04 1119.52 309.94 1119.52 316.84 1119.5 C327.1 1119.48 337.37 1119.49 347.63 1119.5 C364.9 1119.51 382.17 1119.5 399.44 1119.48 C416.54 1119.47 433.63 1119.46 450.73 1119.46 C452.32 1119.46 452.32 1119.46 453.95 1119.46 C458.28 1119.46 462.6 1119.46 466.92 1119.46 C507.43 1119.46 547.95 1119.44 588.46 1119.41 C624.45 1119.38 660.45 1119.37 696.44 1119.37 C698.75 1119.37 701.07 1119.37 703.38 1119.37 C704.52 1119.37 705.67 1119.37 706.84 1119.37 C712.6 1119.37 718.35 1119.37 724.11 1119.37 C725.25 1119.37 726.38 1119.37 727.55 1119.37 C757.64 1119.37 787.72 1119.36 817.81 1119.35 C818.88 1119.35 819.95 1119.35 821.05 1119.35 C825.36 1119.35 829.66 1119.35 833.96 1119.34 C848.93 1119.34 863.9 1119.33 878.87 1119.33 C898.15 1119.33 917.44 1119.32 936.72 1119.31 C946.92 1119.29 957.12 1119.29 967.31 1119.29 C974.12 1119.29 980.93 1119.29 987.74 1119.28 C991.62 1119.27 995.5 1119.27 999.38 1119.27 C1003.56 1119.28 1007.74 1119.27 1011.92 1119.26 C1013.13 1119.26 1014.34 1119.27 1015.58 1119.27 C1022.05 1119.24 1027.74 1118.65 1034 1117 C1035.71 1116.68 1037.42 1116.37 1039.12 1116.06 C1042.61 1115.37 1045.71 1114.45 1048.94 1112.92 C1052.91 1111.15 1057.03 1109.76 1061.11 1108.28 C1063.82 1107.08 1065.06 1106.15 1067 1104 C1068.99 1102.98 1070.99 1101.98 1073 1101 C1073.66 1100.34 1074.32 1099.68 1075 1099 C1076.14 1098.63 1076.14 1098.63 1077.31 1098.25 C1080.32 1096.85 1081.74 1095.1 1083.75 1092.51 C1085.55 1090.33 1087.8 1088.76 1090 1087 C1091.74 1085.06 1093.36 1083.03 1095 1081 C1095.73 1080.29 1095.73 1080.29 1096.47 1079.56 C1102.6 1073.29 1106.29 1064.82 1110 1057 C1110.38 1056.24 1110.77 1055.48 1111.16 1054.69 C1114.21 1048.38 1115.57 1041.83 1117 1035 C1117.16 1034.39 1117.33 1033.79 1117.5 1033.16 C1119.25 1026.4 1119.28 1019.85 1119.26 1012.89 C1119.26 1010.93 1119.26 1010.93 1119.27 1008.93 C1119.28 1005.3 1119.27 1001.68 1119.27 998.05 C1119.27 994.1 1119.27 990.16 1119.28 986.21 C1119.29 979.29 1119.29 972.38 1119.29 965.46 C1119.29 955.18 1119.3 944.89 1119.31 934.61 C1119.33 915.17 1119.33 895.73 1119.33 876.29 C1119.34 861.27 1119.34 846.26 1119.35 831.24 C1119.35 826.92 1119.35 822.6 1119.35 818.27 C1119.35 817.2 1119.35 816.12 1119.35 815.02 C1119.36 784.79 1119.37 754.56 1119.37 724.33 C1119.37 723.19 1119.37 722.05 1119.37 720.87 C1119.37 715.1 1119.37 709.32 1119.37 703.54 C1119.37 702.39 1119.37 701.25 1119.37 700.07 C1119.37 697.74 1119.37 695.42 1119.37 693.1 C1119.37 657.02 1119.38 620.93 1119.41 584.85 C1119.44 544.3 1119.46 503.76 1119.46 463.21 C1119.46 458.88 1119.46 454.56 1119.46 450.23 C1119.46 449.17 1119.46 448.1 1119.46 447 C1119.46 429.88 1119.47 412.76 1119.49 395.63 C1119.5 378.41 1119.51 361.19 1119.49 343.97 C1119.49 333.75 1119.49 323.53 1119.51 313.3 C1119.52 306.46 1119.52 299.62 1119.5 292.79 C1119.5 288.9 1119.49 285.01 1119.51 281.12 C1119.74 252 1119.74 252 1111.19 224.44 C1110.84 223.7 1110.5 222.97 1110.15 222.22 C1107.66 217.01 1104.78 212.12 1101.53 207.34 C1100.06 205.1 1098.93 202.87 1097.81 200.44 C1095.84 196.7 1095.49 196.7 1092 195 C1090.36 193.3 1090.36 193.3 1088.75 191.31 C1078.59 179.43 1065.56 171.4 1051 166 C1050.28 165.69 1049.56 165.39 1048.82 165.07 C1031.7 158.57 1013.28 159.37 995.28 159.32 C989.25 159.3 983.22 159.24 977.19 159.19 C975.1 159.18 973.01 159.17 970.92 159.16 C969.03 159.15 969.03 159.15 967.1 159.14 C965.43 159.14 965.43 159.14 963.74 159.13 C961 159 961 159 958 158 C958.33 157.01 958.66 156.02 959 155 C959.12 152.85 959.18 150.7 959.21 148.55 C959.22 147.58 959.22 147.58 959.24 146.58 C959.27 144.42 959.29 142.25 959.32 140.09 C959.34 138.56 959.36 137.04 959.38 135.51 C959.42 132.3 959.46 129.08 959.5 125.87 C959.55 121.83 959.6 117.79 959.66 113.75 C959.77 106 959.86 98.25 959.93 90.5 C959.97 86.97 960.01 83.44 960.07 79.91 C960.13 76.26 960.17 72.6 960.21 68.94 C960.24 67.88 960.26 66.81 960.29 65.72 C960.29 64.75 960.3 63.78 960.31 62.78 C960.32 61.95 960.33 61.11 960.35 60.25 C959.87 57.15 959.45 56.03 957 54 C953.75 53.37 950.52 53.43 947.22 53.44 C945.72 53.42 945.72 53.42 944.18 53.4 C940.86 53.37 937.53 53.36 934.21 53.36 C931.91 53.34 929.61 53.32 927.3 53.3 C922.48 53.26 917.65 53.23 912.82 53.22 C906.62 53.2 900.42 53.15 894.22 53.1 C888.32 53.05 882.42 53.02 876.52 52.98 C874.82 52.97 874.82 52.97 873.09 52.96 C869.9 52.94 866.71 52.92 863.52 52.91 C862.57 52.91 861.61 52.9 860.63 52.89 C859.33 52.89 859.33 52.89 858.01 52.89 C857.26 52.89 856.5 52.88 855.72 52.88 C853.97 52.81 853.97 52.81 853 54 C852.89 55.37 852.85 56.74 852.84 58.11 C852.83 58.99 852.82 59.88 852.81 60.79 C852.81 61.77 852.8 62.74 852.79 63.75 C852.78 65.29 852.78 65.29 852.76 66.86 C852.73 70.26 852.71 73.66 852.68 77.07 C852.66 79.42 852.64 81.77 852.62 84.12 C852.57 90.33 852.52 96.54 852.47 102.74 C852.42 109.07 852.36 115.4 852.31 121.72 C852.2 134.15 852.1 146.57 852 159 C798 159.02 744 159.04 690.01 159.05 C683.64 159.05 677.27 159.05 670.9 159.05 C669.63 159.06 668.37 159.06 667.06 159.06 C646.5 159.06 625.95 159.07 605.39 159.08 C584.32 159.09 563.24 159.09 542.16 159.09 C529.15 159.1 516.13 159.1 503.12 159.11 C494.2 159.11 485.29 159.11 476.38 159.11 C471.23 159.11 466.08 159.11 460.93 159.12 C456.22 159.12 451.51 159.12 446.81 159.12 C445.1 159.12 443.38 159.12 441.67 159.12 C439.36 159.13 437.05 159.13 434.74 159.12 C433.46 159.12 432.17 159.12 430.84 159.12 C428 159 428 159 427 158 C426.9 156.66 426.86 155.32 426.86 153.98 C426.85 153.12 426.84 152.25 426.83 151.36 C426.83 149.93 426.83 149.93 426.83 148.46 C426.82 147.46 426.81 146.46 426.81 145.43 C426.79 143.25 426.78 141.06 426.77 138.88 C426.75 135.43 426.73 131.98 426.71 128.53 C426.63 118.72 426.57 108.91 426.52 99.1 C426.49 93.11 426.45 87.12 426.4 81.13 C426.39 78.84 426.37 76.55 426.37 74.26 C426.35 71.06 426.33 67.86 426.3 64.67 C426.3 63.23 426.3 63.23 426.3 61.77 C426.29 60.91 426.28 60.04 426.27 59.14 C426.27 58.01 426.27 58.01 426.26 56.85 C426.16 54.75 426.16 54.75 424 53 C419.84 53 415.67 53.03 411.51 53.06 Z " fill="#FBFCFE" transform="translate(0,0)"/>
<path d="M0 0 C1.07 -0 2.14 -0.01 3.24 -0.01 C5.02 -0.01 5.02 -0.01 6.84 -0 C8.1 -0 9.36 -0.01 10.65 -0.01 C14.17 -0.01 17.69 -0.01 21.21 -0.01 C25.03 -0.01 28.85 -0.01 32.66 -0.01 C39.37 -0.02 46.07 -0.02 52.77 -0.02 C62.73 -0.02 72.7 -0.02 82.66 -0.03 C101.49 -0.04 120.32 -0.04 139.14 -0.04 C153.68 -0.04 168.21 -0.04 182.75 -0.05 C186.93 -0.05 191.1 -0.05 195.28 -0.05 C196.32 -0.05 197.36 -0.05 198.43 -0.05 C227.65 -0.06 256.88 -0.06 286.1 -0.06 C287.21 -0.06 288.31 -0.06 289.44 -0.06 C295.03 -0.06 300.62 -0.06 306.21 -0.06 C307.88 -0.06 307.88 -0.06 309.58 -0.06 C311.82 -0.06 314.07 -0.06 316.31 -0.06 C351.26 -0.06 386.2 -0.07 421.14 -0.08 C460.36 -0.09 499.58 -0.1 538.8 -0.1 C542.98 -0.1 547.16 -0.1 551.33 -0.1 C552.88 -0.1 552.88 -0.1 554.45 -0.1 C571.04 -0.1 587.64 -0.11 604.23 -0.12 C620.89 -0.13 637.55 -0.13 654.21 -0.12 C664.12 -0.12 674.03 -0.12 683.94 -0.13 C690.55 -0.13 697.16 -0.13 703.77 -0.13 C707.54 -0.12 711.32 -0.12 715.09 -0.13 C719.14 -0.14 723.19 -0.13 727.24 -0.12 C728.43 -0.13 729.62 -0.13 730.85 -0.14 C732.45 -0.13 732.45 -0.13 734.09 -0.12 C735.48 -0.12 735.48 -0.12 736.9 -0.12 C739.11 0.13 739.11 0.13 741.11 2.13 C741.3 5.28 741.37 8.34 741.36 11.49 C741.36 12.48 741.36 13.47 741.36 14.48 C741.37 17.83 741.36 21.18 741.35 24.53 C741.36 26.94 741.36 29.35 741.36 31.76 C741.37 37.02 741.37 42.28 741.36 47.54 C741.35 55.36 741.35 63.18 741.36 71 C741.36 84.15 741.36 97.31 741.35 110.46 C741.34 123.49 741.34 136.52 741.34 149.55 C741.34 150.77 741.34 150.77 741.34 152 C741.34 155.29 741.34 158.57 741.34 161.86 C741.34 192.7 741.33 223.54 741.31 254.38 C741.3 281.8 741.29 309.23 741.29 336.65 C741.29 338.41 741.29 340.17 741.29 341.93 C741.29 342.8 741.29 343.67 741.29 344.57 C741.29 348.95 741.29 353.33 741.29 357.72 C741.29 358.58 741.29 359.44 741.29 360.33 C741.29 383.22 741.29 406.11 741.28 429 C741.28 429.81 741.28 430.63 741.28 431.46 C741.28 434.74 741.28 438.01 741.28 441.28 C741.28 452.69 741.27 464.09 741.27 475.5 C741.27 490.19 741.27 504.88 741.26 519.58 C741.25 527.35 741.25 535.13 741.25 542.91 C741.25 548.7 741.25 554.49 741.24 560.29 C741.24 562.64 741.24 565 741.24 567.35 C741.25 570.53 741.24 573.71 741.24 576.89 C741.24 578.29 741.24 578.29 741.24 579.72 C741.22 586.01 741.22 586.01 740.11 587.13 C738.48 587.23 736.85 587.25 735.22 587.25 C733.62 587.26 733.62 587.26 731.99 587.26 C730.8 587.26 729.62 587.26 728.39 587.26 C726.51 587.26 726.51 587.26 724.59 587.26 C721.08 587.27 717.56 587.27 714.05 587.27 C710.24 587.27 706.43 587.27 702.62 587.28 C695.05 587.28 687.48 587.29 679.9 587.29 C670.84 587.29 661.78 587.29 652.71 587.3 C630.8 587.32 608.89 587.32 586.98 587.33 C576.63 587.33 566.27 587.33 555.91 587.34 C520.48 587.35 485.04 587.36 449.61 587.36 C447.38 587.36 445.16 587.36 442.93 587.36 C440.7 587.36 438.47 587.37 436.24 587.37 C431.76 587.37 427.28 587.37 422.81 587.37 C421.7 587.37 420.59 587.37 419.44 587.37 C383.44 587.37 347.44 587.39 311.44 587.41 C273.4 587.43 235.37 587.45 197.33 587.45 C193.16 587.45 188.99 587.45 184.82 587.45 C183.28 587.45 183.28 587.45 181.71 587.45 C165.14 587.45 148.58 587.46 132.02 587.48 C115.39 587.49 98.75 587.49 82.12 587.49 C72.23 587.48 62.33 587.49 52.44 587.5 C45.84 587.51 39.24 587.51 32.64 587.5 C28.88 587.49 25.11 587.49 21.34 587.51 C17.3 587.52 13.25 587.51 9.2 587.5 C8.02 587.51 6.84 587.51 5.62 587.52 C4.55 587.51 3.47 587.51 2.37 587.5 C1.44 587.5 0.51 587.5 -0.44 587.5 C-3.42 587.05 -4.78 586.27 -6.89 584.13 C-7.39 582.22 -7.39 582.22 -7.38 580.02 C-7.39 579.17 -7.4 578.33 -7.41 577.46 C-7.4 576.54 -7.38 575.61 -7.37 574.66 C-7.38 573.67 -7.38 572.68 -7.38 571.66 C-7.39 568.32 -7.36 564.98 -7.34 561.64 C-7.34 559.23 -7.34 556.83 -7.34 554.42 C-7.34 549.17 -7.33 543.92 -7.31 538.67 C-7.27 530.87 -7.26 523.06 -7.25 515.26 C-7.24 502.13 -7.2 489 -7.16 475.87 C-7.12 462.87 -7.08 449.86 -7.06 436.86 C-7.06 436.05 -7.06 435.24 -7.05 434.41 C-7.05 431.13 -7.04 427.85 -7.04 424.57 C-6.98 394.67 -6.91 364.77 -6.82 334.87 C-6.74 306.62 -6.67 278.37 -6.61 250.12 C-6.61 249.25 -6.61 248.38 -6.61 247.48 C-6.6 243.1 -6.59 238.72 -6.58 234.33 C-6.58 233.47 -6.58 232.6 -6.58 231.71 C-6.57 229.97 -6.57 228.22 -6.57 226.48 C-6.51 198.74 -6.45 170.99 -6.38 143.25 C-6.36 135.12 -6.35 126.98 -6.33 118.85 C-6.29 101.75 -6.25 84.65 -6.2 67.54 C-6.18 60.47 -6.16 53.39 -6.14 46.32 C-6.13 39.85 -6.11 33.38 -6.09 26.92 C-6.08 24.57 -6.08 22.21 -6.07 19.86 C-6.07 16.69 -6.06 13.52 -6.04 10.35 C-6.04 8.95 -6.04 8.95 -6.04 7.52 C-6 0 -6 0 0 0 Z " fill="#FBFCFE" transform="translate(271.89244693517685,425.8735001683235)"/>
<path d="M0 0 C50.51 -0.02 101.03 -0.03 151.54 -0.04 C152.66 -0.04 152.66 -0.04 153.81 -0.04 C170.04 -0.05 186.27 -0.05 202.51 -0.05 C210.47 -0.05 218.43 -0.05 226.39 -0.05 C227.18 -0.06 227.97 -0.06 228.79 -0.06 C254.48 -0.06 280.18 -0.07 305.88 -0.08 C332.28 -0.09 358.68 -0.09 385.08 -0.09 C388.8 -0.09 392.52 -0.09 396.25 -0.09 C396.98 -0.09 397.71 -0.1 398.47 -0.1 C410.29 -0.1 422.12 -0.1 433.94 -0.11 C445.81 -0.11 457.68 -0.11 469.56 -0.11 C475.99 -0.11 482.43 -0.11 488.87 -0.12 C494.76 -0.12 500.64 -0.12 506.52 -0.12 C508.66 -0.12 510.8 -0.12 512.94 -0.12 C515.83 -0.13 518.71 -0.13 521.6 -0.12 C522.45 -0.13 523.3 -0.13 524.17 -0.13 C529.89 -0.11 529.89 -0.11 531 1 C531 34.99 531 68.98 531 104 C356.1 104 181.2 104 1 104 C-0.15 101.71 -0.12 100.44 -0.12 97.89 C-0.12 97.03 -0.12 96.17 -0.12 95.28 C-0.12 94.33 -0.12 93.38 -0.11 92.41 C-0.11 91.41 -0.11 90.42 -0.11 89.39 C-0.11 86.09 -0.11 82.79 -0.1 79.49 C-0.1 77.21 -0.09 74.92 -0.09 72.64 C-0.09 66.62 -0.08 60.6 -0.07 54.58 C-0.06 48.44 -0.05 42.3 -0.05 36.16 C-0.04 24.11 -0.02 12.05 0 0 Z " fill="#000002" transform="translate(374,534)"/>
<path d="M0 0 C46.97 -0.02 93.95 -0.04 140.92 -0.05 C146.46 -0.05 152 -0.05 157.54 -0.05 C159.2 -0.06 159.2 -0.06 160.89 -0.06 C178.77 -0.06 196.65 -0.07 214.53 -0.08 C232.87 -0.09 251.2 -0.09 269.54 -0.09 C280.86 -0.1 292.18 -0.1 303.51 -0.11 C311.26 -0.11 319.02 -0.11 326.77 -0.11 C331.25 -0.11 335.73 -0.11 340.21 -0.12 C344.31 -0.12 348.4 -0.12 352.5 -0.12 C353.98 -0.12 355.47 -0.12 356.96 -0.12 C358.97 -0.13 360.98 -0.13 362.99 -0.12 C364.11 -0.12 365.23 -0.12 366.39 -0.12 C369 0 369 0 371 1 C371.02 14.54 371.04 28.09 371.05 41.63 C371.06 47.92 371.06 54.2 371.08 60.49 C371.09 66.55 371.09 72.62 371.09 78.68 C371.1 81 371.1 83.32 371.11 85.63 C371.11 88.87 371.11 92.1 371.11 95.34 C371.12 96.31 371.12 97.28 371.12 98.28 C371.12 99.15 371.12 100.03 371.12 100.93 C371.12 102.08 371.12 102.08 371.12 103.25 C371 105 371 105 370 106 C368.05 106.1 366.09 106.13 364.14 106.13 C362.86 106.13 361.57 106.14 360.25 106.14 C358.81 106.14 357.37 106.14 355.93 106.13 C354.41 106.14 352.9 106.14 351.38 106.14 C347.19 106.15 343 106.15 338.82 106.15 C334.31 106.15 329.8 106.15 325.29 106.16 C316.45 106.16 307.61 106.17 298.77 106.17 C291.58 106.17 284.4 106.17 277.22 106.17 C256.88 106.18 236.53 106.19 216.19 106.19 C215.09 106.19 213.99 106.19 212.86 106.19 C211.76 106.19 210.66 106.19 209.53 106.19 C191.71 106.18 173.89 106.19 156.07 106.21 C137.8 106.22 119.52 106.23 101.25 106.23 C90.98 106.23 80.71 106.23 70.44 106.24 C61.7 106.25 52.95 106.25 44.21 106.25 C39.75 106.24 35.28 106.24 30.82 106.25 C26.74 106.26 22.65 106.26 18.57 106.25 C17.09 106.25 15.61 106.25 14.13 106.26 C12.12 106.26 10.12 106.26 8.11 106.25 C7 106.25 5.88 106.25 4.73 106.25 C2 106 2 106 -1 104 C-1.35 102.13 -1.35 102.13 -1.32 99.81 C-1.32 98.93 -1.31 98.06 -1.31 97.15 C-1.29 96.19 -1.27 95.22 -1.25 94.23 C-1.24 93.21 -1.23 92.2 -1.22 91.15 C-1.19 87.79 -1.13 84.42 -1.07 81.05 C-1.05 78.73 -1.02 76.4 -0.99 74.07 C-0.92 67.93 -0.83 61.79 -0.74 55.65 C-0.65 49.39 -0.58 43.13 -0.5 36.87 C-0.35 24.58 -0.18 12.29 0 0 Z " fill="#000002" transform="translate(374,747)"/>
<path d="M0 0 C0.66 0 1.32 0 2 0 C3.7 3.41 3.13 7.29 3.11 11.04 C3.11 11.98 3.11 12.91 3.11 13.88 C3.11 16.98 3.11 20.09 3.1 23.2 C3.1 25.34 3.09 27.49 3.09 29.64 C3.09 35.31 3.08 40.97 3.07 46.64 C3.06 52.42 3.05 58.19 3.05 63.97 C3.04 75.32 3.02 86.66 3 98 C2.34 98 1.68 98 1 98 C-0.7 94.59 -0.13 90.71 -0.11 86.96 C-0.11 86.02 -0.11 85.09 -0.11 84.12 C-0.11 81.02 -0.11 77.91 -0.1 74.8 C-0.1 72.66 -0.09 70.51 -0.09 68.36 C-0.09 62.69 -0.08 57.03 -0.07 51.36 C-0.06 45.58 -0.05 39.81 -0.05 34.03 C-0.04 22.68 -0.02 11.34 0 0 Z " fill="#676869" transform="translate(319,56)"/>
<path d="M0 0 C0.09 20.24 -0.16 40.46 -0.46 60.7 C-0.53 64.81 -0.58 68.92 -0.64 73.03 C-0.76 81.02 -0.88 89.01 -1 97 C-3.65 94.35 -3.24 92.4 -3.25 88.79 C-3.24 87.91 -3.23 87.04 -3.23 86.14 C-3.23 85.23 -3.23 84.31 -3.23 83.36 C-3.23 80.32 -3.21 77.28 -3.2 74.24 C-3.19 72.14 -3.19 70.03 -3.19 67.93 C-3.18 62.38 -3.16 56.83 -3.14 51.29 C-3.12 45.63 -3.11 39.97 -3.1 34.32 C-3.08 23.21 -3.04 12.11 -3 1 C-1 0 -1 0 0 0 Z " fill="#68696A" transform="translate(960,58)"/>
<path d="M0 0 C12.99 -0.07 25.97 -0.12 38.96 -0.16 C44.99 -0.17 51.02 -0.19 57.05 -0.23 C62.87 -0.26 68.68 -0.28 74.5 -0.28 C76.72 -0.29 78.94 -0.3 81.16 -0.32 C84.27 -0.34 87.37 -0.34 90.48 -0.34 C91.4 -0.35 92.33 -0.36 93.28 -0.37 C94.13 -0.37 94.97 -0.37 95.84 -0.36 C96.58 -0.36 97.31 -0.37 98.07 -0.37 C100.56 0.11 101.47 1.02 103 3 C103 3.66 103 4.32 103 5 C102.01 5.33 101.02 5.66 100 6 C99.5 3.52 99.5 3.52 99 1 C66.33 1 33.66 1 0 1 C0 0.67 0 0.34 0 0 Z " fill="#B9BABB" transform="translate(858,53)"/>
<path d="M0 0 C4.92 4.12 9.53 8.4 14 13 C13.67 13.66 13.34 14.32 13 15 C11.01 13.26 9.03 11.51 7.06 9.75 C6.5 9.26 5.93 8.77 5.35 8.26 C2.4 5.61 0.71 3.91 0 0 Z " fill="#BCBDBE" transform="translate(1087,181)"/>
<path d="M0 0 C0.99 0.33 1.98 0.66 3 1 C2.47 1.52 1.94 2.04 1.39 2.57 C-1.68 5.6 -4.64 8.55 -7.31 11.94 C-9 14 -9 14 -12 15 C-10.54 11.61 -8.66 9.48 -6 6.94 C-3.63 4.66 -1.84 2.75 0 0 Z " fill="#BCBDBE" transform="translate(195,177)"/>
<path d="M0 0 C5.94 0.99 5.94 0.99 12 2 C12 2.33 12 2.66 12 3 C5.73 3 -0.54 3 -7 3 C-7 2.67 -7 2.34 -7 2 C-4.69 2 -2.38 2 0 2 C0 1.34 0 0.68 0 0 Z " fill="#BCBDBE" transform="translate(995,435)"/>
</svg>
