<?xml version="1.0" standalone="no"?>
<!DOCTYPE svg PUBLIC "-//W3C//DTD SVG 20010904//EN"
 "http://www.w3.org/TR/2001/REC-SVG-20010904/DTD/svg10.dtd">
<svg version="1.0" xmlns="http://www.w3.org/2000/svg"
 width="474.000000pt" height="474.000000pt" viewBox="0 0 474.000000 474.000000"
 preserveAspectRatio="xMidYMid meet">

<g transform="translate(0.000000,474.000000) scale(0.100000,-0.100000)"
fill="#000000" stroke="none">
<path d="M2562 3805 c-71 -20 -100 -36 -142 -80 l-35 -36 -5 -247 -5 -247 -68
-124 c-118 -216 -310 -508 -361 -550 -11 -9 -154 -13 -568 -14 -536 -2 -554
-3 -580 -22 -14 -11 -35 -33 -45 -50 -17 -28 -18 -68 -18 -722 0 -683 0 -692
21 -719 11 -15 33 -37 48 -48 27 -20 41 -21 488 -24 l460 -3 43 25 c46 27 75
80 75 136 0 17 3 30 6 30 3 0 44 -19 92 -42 l86 -43 701 -3 c480 -2 720 1 765
8 133 23 242 111 275 222 17 60 20 171 4 215 -9 27 -6 37 21 79 57 91 74 196
45 279 -14 39 -14 41 14 80 15 22 35 59 44 83 21 52 22 160 3 206 -13 32 -13
36 19 80 106 149 68 349 -80 429 -39 21 -52 22 -460 25 l-421 3 28 167 c40
244 43 295 24 391 -31 154 -141 422 -188 461 -32 26 -123 59 -183 65 -29 3
-72 -1 -103 -10z m153 -136 c41 -10 44 -14 79 -90 52 -113 93 -232 111 -322
14 -70 14 -87 0 -175 -26 -161 -75 -445 -82 -469 l-5 -23 472 0 c539 0 527 2
562 -78 40 -89 -10 -204 -109 -252 -29 -14 -53 -30 -53 -37 0 -7 16 -20 36
-29 60 -29 87 -89 71 -162 -11 -55 -87 -139 -134 -148 -48 -9 -49 -31 -2 -54
79 -41 99 -117 53 -209 -27 -54 -74 -94 -126 -106 -37 -9 -35 -30 3 -45 70
-29 90 -127 43 -207 -30 -53 -81 -86 -152 -102 -79 -17 -1354 -15 -1402 2 -19
7 -66 32 -104 55 -53 32 -80 42 -113 42 l-43 0 0 508 0 507 88 54 c48 30 112
80 142 111 89 90 326 459 427 665 l45 90 -4 220 -3 220 45 23 c49 24 89 27
155 11z m-985 -1954 l0 -655 -425 0 -425 0 0 655 0 655 425 0 425 0 0 -655z"/>
<path d="M1097 2193 c79 -2 207 -2 285 0 79 1 15 3 -142 3 -157 0 -221 -2
-143 -3z"/>
<path d="M1648 1123 c7 -3 16 -2 19 1 4 3 -2 6 -13 5 -11 0 -14 -3 -6 -6z"/>
</g>
</svg>
