<?xml version="1.0" standalone="no"?>
<!DOCTYPE svg PUBLIC "-//W3C//DTD SVG 20010904//EN"
 "http://www.w3.org/TR/2001/REC-SVG-20010904/DTD/svg10.dtd">
<svg version="1.0" xmlns="http://www.w3.org/2000/svg"
 width="200.000000pt" height="200.000000pt" viewBox="0 0 200.000000 200.000000"
 preserveAspectRatio="xMidYMid meet">

<g transform="translate(0.000000,200.000000) scale(0.100000,-0.100000)"
fill="#000000" stroke="none">
<path d="M1686 1828 c-97 -26 -164 -149 -135 -248 7 -25 13 -48 14 -51 0 -4
-35 -36 -78 -71 l-78 -65 -46 24 c-83 42 -176 22 -240 -50 -66 -75 -68 -171
-6 -255 54 -72 170 -97 253 -53 l42 21 79 -66 c59 -49 78 -71 73 -83 -34 -80
-24 -157 28 -217 48 -55 100 -77 170 -72 203 15 258 286 76 379 -54 27 -133
27 -187 -1 l-42 -21 -78 65 -79 66 14 37 c18 50 17 96 -1 140 -8 20 -14 37
-13 38 2 2 38 32 81 67 l78 65 46 -24 c63 -31 117 -30 184 5 91 47 132 157 93
250 -23 56 -72 101 -128 117 -56 17 -65 17 -120 3z m131 -78 c119 -72 68 -253
-71 -253 -76 0 -136 60 -136 136 0 108 116 173 207 117z m-494 -384 c54 -22
87 -70 87 -124 0 -84 -56 -142 -137 -142 -78 0 -133 60 -133 144 0 51 34 100
85 122 39 17 58 17 98 0z m495 -406 c47 -29 76 -97 63 -147 -15 -56 -36 -79
-86 -99 -59 -22 -110 -8 -154 41 -56 65 -36 170 40 208 46 22 97 21 137 -3z"/>
<path d="M101 1256 c-49 -27 -50 -35 -51 -434 0 -405 1 -416 55 -440 14 -7 48
-12 75 -12 l50 0 0 -74 c0 -82 18 -118 65 -130 37 -9 70 12 170 113 l90 91
372 0 373 0 32 29 33 29 3 260 c3 228 1 262 -13 276 -12 12 -21 13 -36 6 -18
-10 -19 -24 -19 -263 0 -184 -3 -256 -12 -265 -9 -9 -109 -12 -387 -12 l-376
0 -101 -101 c-127 -127 -134 -127 -134 6 l0 95 -74 0 c-54 0 -79 4 -90 16 -14
13 -16 61 -16 374 l0 359 22 15 c19 14 79 16 444 16 380 0 422 2 428 16 17 43
6 44 -448 44 -338 -1 -436 -4 -455 -14z"/>
<path d="M367 862 c-18 -19 -22 -59 -9 -79 24 -37 96 -31 111 9 9 25 -3 68
-22 80 -22 14 -64 8 -80 -10z"/>
<path d="M674 872 c-40 -26 -35 -95 8 -111 63 -23 118 58 70 102 -19 18 -59
22 -78 9z"/>
<path d="M954 855 c-21 -33 -10 -74 25 -91 31 -16 62 -4 81 30 13 23 13 29 0
54 -23 40 -82 44 -106 7z"/>
</g>
</svg>
