<?xml version="1.0" standalone="no"?>
<!DOCTYPE svg PUBLIC "-//W3C//DTD SVG 20010904//EN"
 "http://www.w3.org/TR/2001/REC-SVG-20010904/DTD/svg10.dtd">
<svg version="1.0" xmlns="http://www.w3.org/2000/svg"
 width="200.000000pt" height="200.000000pt" viewBox="0 0 200.000000 200.000000"
 preserveAspectRatio="xMidYMid meet">

<g transform="translate(0.000000,200.000000) scale(0.100000,-0.100000)"
fill="#000000" stroke="none">
<path d="M201 1824 c-21 -26 -21 -34 -21 -686 l0 -659 25 -25 24 -24 343 2
343 3 0 25 0 25 -335 5 -335 5 -3 130 -2 130 99 99 99 99 129 -121 c70 -67
135 -122 143 -122 8 0 157 142 330 315 173 173 319 315 325 315 14 0 245 -232
245 -246 0 -7 7 -17 15 -24 12 -10 18 -10 30 0 13 11 15 64 15 370 0 346 -1
358 -21 384 l-20 26 -704 0 -704 0 -20 -26z m1407 -334 l2 -305 -119 119 c-65
65 -123 117 -129 115 -6 -2 -156 -147 -334 -321 l-325 -317 -114 115 c-63 64
-122 120 -132 125 -15 8 -35 -6 -115 -81 l-97 -90 -3 462 c-1 255 0 469 3 476
3 10 145 12 682 10 l678 -3 3 -305z"/>
<path d="M556 1630 c-67 -20 -111 -89 -103 -163 8 -87 97 -149 182 -126 104
29 148 152 83 234 -22 28 -91 65 -118 64 -8 0 -28 -5 -44 -9z m84 -65 c69 -36
68 -125 -1 -161 -82 -42 -167 58 -113 134 28 41 69 50 114 27z"/>
<path d="M1633 905 c-41 -17 -73 -69 -73 -117 0 -36 -1 -37 -108 -95 l-109
-59 -32 24 c-100 77 -245 0 -245 -130 0 -119 139 -190 239 -122 l38 25 56 -30
c31 -16 80 -43 108 -58 51 -27 53 -29 53 -72 0 -37 6 -49 39 -82 35 -35 44
-39 91 -39 46 0 56 4 85 33 44 44 55 98 29 146 -40 73 -114 96 -186 57 l-35
-19 -105 58 -105 58 2 51 2 50 105 59 106 58 33 -20 c87 -53 199 10 199 111 0
37 -34 90 -71 110 -40 21 -72 22 -116 3z m104 -67 c48 -45 16 -118 -51 -118
-25 0 -39 7 -50 22 -52 74 36 157 101 96z m-452 -232 c34 -34 41 -71 21 -113
-40 -85 -164 -70 -182 22 -6 36 15 87 43 104 34 19 92 13 118 -13z m450 -281
c46 -45 19 -118 -43 -118 -69 0 -99 80 -46 122 35 27 59 26 89 -4z"/>
</g>
</svg>
