<?xml version="1.0" standalone="no"?>
<!DOCTYPE svg PUBLIC "-//W3C//DTD SVG 20010904//EN"
 "http://www.w3.org/TR/2001/REC-SVG-20010904/DTD/svg10.dtd">
<svg version="1.0" xmlns="http://www.w3.org/2000/svg"
 width="200.000000pt" height="200.000000pt" viewBox="0 0 200.000000 200.000000"
 preserveAspectRatio="xMidYMid meet">

<g transform="translate(0.000000,200.000000) scale(0.100000,-0.100000)"
fill="#000000" stroke="none">
<path d="M1597 1713 c-4 -3 -7 -39 -7 -80 l0 -73 -32 0 c-146 -1 -336 -106
-415 -229 l-38 -61 -457 0 c-299 0 -466 -4 -485 -11 -40 -15 -73 -48 -94 -94
-17 -36 -19 -71 -19 -385 0 -196 4 -360 10 -379 11 -39 51 -86 92 -107 40 -21
1116 -21 1156 0 38 20 77 65 91 105 14 43 15 690 1 741 -5 20 -25 53 -44 73
-32 35 -33 38 -15 48 27 14 161 39 210 39 l39 0 0 -69 c0 -98 13 -105 87 -44
177 143 273 225 273 233 0 13 -319 300 -334 300 -7 0 -16 -3 -19 -7z m186
-197 c54 -49 96 -93 95 -97 -2 -5 -55 -52 -118 -104 l-115 -94 -5 62 -5 62
-82 -2 c-152 -3 -269 -41 -370 -122 -59 -46 -64 -40 -29 35 31 67 87 128 159
175 71 46 133 68 240 83 l82 11 3 59 3 58 22 -18 c12 -11 66 -59 120 -108z
m-701 -291 c2 -3 0 -30 -5 -60 -9 -45 -8 -58 4 -70 12 -12 25 -4 93 56 44 38
85 69 91 69 20 0 64 -39 80 -70 12 -24 15 -90 15 -380 0 -382 -1 -388 -57
-426 -26 -18 -56 -19 -554 -22 -582 -3 -586 -3 -626 57 -23 34 -23 36 -23 393
0 301 2 364 15 388 16 30 39 47 84 61 28 8 874 12 883 4z"/>
<path d="M487 1043 c-4 -3 -7 -125 -7 -270 0 -222 2 -265 15 -269 8 -3 128 52
267 123 189 96 253 133 253 147 0 13 -64 51 -250 147 -137 71 -255 129 -261
129 -6 0 -14 -3 -17 -7z m447 -272 c-5 -5 -98 -54 -206 -110 l-198 -101 0 213
0 213 206 -104 c114 -57 202 -107 198 -111z"/>
</g>
</svg>
