<?xml version="1.0" standalone="no"?>
<!DOCTYPE svg PUBLIC "-//W3C//DTD SVG 20010904//EN"
 "http://www.w3.org/TR/2001/REC-SVG-20010904/DTD/svg10.dtd">
<svg version="1.0" xmlns="http://www.w3.org/2000/svg"
 width="191.000000pt" height="263.000000pt" viewBox="0 0 191.000000 263.000000"
 preserveAspectRatio="xMidYMid meet">

<g transform="translate(0.000000,263.000000) scale(0.100000,-0.100000)"
fill="#000000" stroke="none">
<path d="M710 2385 l-235 -235 80 -80 c44 -44 84 -80 90 -80 5 0 51 42 102 92
l93 93 0 -668 0 -667 115 0 115 0 0 667 0 668 93 -93 c51 -50 97 -92 102 -92
6 0 46 36 90 80 l80 80 -235 235 c-129 129 -239 235 -245 235 -6 0 -116 -106
-245 -235z"/>
<path d="M144 1771 c-52 -24 -109 -83 -126 -130 -10 -28 -13 -192 -13 -751 l0
-715 28 -48 c35 -60 93 -102 158 -116 69 -15 1459 -15 1528 0 65 14 123 56
158 116 l28 48 3 689 c2 469 -1 706 -8 742 -8 38 -23 65 -53 100 -69 78 -89
84 -330 84 l-208 0 3 -117 3 -118 178 -3 177 -2 0 -655 0 -655 -715 0 -715 0
0 655 0 655 178 2 177 3 3 118 3 117 -208 0 c-181 0 -213 -3 -249 -19z"/>
</g>
</svg>
