<?xml version="1.0" standalone="no"?>
<!DOCTYPE svg PUBLIC "-//W3C//DTD SVG 20010904//EN"
 "http://www.w3.org/TR/2001/REC-SVG-20010904/DTD/svg10.dtd">
<svg version="1.0" xmlns="http://www.w3.org/2000/svg"
 width="200.000000pt" height="200.000000pt" viewBox="0 0 200.000000 200.000000"
 preserveAspectRatio="xMidYMid meet">

<g transform="translate(0.000000,200.000000) scale(0.100000,-0.100000)"
fill="#000000" stroke="none">
<path d="M1067 1148 c-21 -37 -23 -44 -10 -51 8 -5 16 -7 17 -5 14 19 46 81
46 89 0 24 -30 5 -53 -33z"/>
<path d="M1128 1095 c-25 -17 -35 -30 -32 -40 8 -20 10 -19 61 11 42 25 52 47
22 51 -8 1 -31 -9 -51 -22z"/>
<path d="M1110 1000 c0 -19 5 -21 58 -18 43 2 57 7 57 18 0 11 -14 16 -57 18
-53 3 -58 1 -58 -18z"/>
</g>
</svg>
